<svg width="68" height="68" viewBox="0 0 68 68" fill="none" xmlns="http://www.w3.org/2000/svg">
<path d="M67.0027 17H52.768V12.1465H54.3093C54.5738 12.1465 54.8275 12.0414 55.0146 11.8544C55.2016 11.6674 55.3067 11.4137 55.3067 11.1492V6.07183C55.3059 5.80782 55.2005 5.55487 55.0136 5.36844C54.8266 5.18202 54.5734 5.07733 54.3093 5.07733H42.6133V0.997333C42.6133 0.732824 42.5083 0.479148 42.3212 0.292112C42.1342 0.105076 41.8805 0 41.616 0L26.384 0C26.1195 0 25.8658 0.105076 25.6788 0.292112C25.4917 0.479148 25.3867 0.732824 25.3867 0.997333V5.07733H13.6907C13.4266 5.07733 13.1734 5.18202 12.9864 5.36844C12.7995 5.55487 12.6941 5.80782 12.6933 6.07183V11.1492C12.6933 11.4137 12.7984 11.6674 12.9854 11.8544C13.1725 12.0414 13.4262 12.1465 13.6907 12.1465H15.232V17H0.997333C0.734776 17 0.482803 17.1035 0.296089 17.2881C0.109375 17.4727 0.00298361 17.7235 0 17.986L0 67.0027C0 67.2672 0.105076 67.5209 0.292112 67.7079C0.479148 67.8949 0.732824 68 0.997333 68H67.014C67.2768 67.9978 67.528 67.8916 67.7127 67.7047C67.8975 67.5178 68.0008 67.2654 68 67.0027V17.986C67.9978 17.7232 67.8916 17.472 67.7047 17.2873C67.5179 17.1025 67.2655 16.9992 67.0027 17ZM15.232 24.0607H66.0167V40.5818H1.98333V24.0607H15.232ZM66.0167 18.9833V22.0688H52.768V18.9833H66.0167ZM42.6133 7.08333H53.3148V10.1547H42.6133V7.08333ZM27.3813 1.98333H40.6215V15.232H27.3813V1.98333ZM26.384 17.2238H41.616C41.88 17.2238 42.1333 17.1191 42.3202 16.9327C42.5072 16.7463 42.6126 16.4934 42.6133 16.2293V12.1465H50.7762V22.0632H17.2238V12.1465H25.3867V16.2293C25.3874 16.4934 25.4928 16.7463 25.6798 16.9327C25.8667 17.1191 26.12 17.2238 26.384 17.2238ZM14.6852 10.1547V7.08333H25.3867V10.1547H14.6852ZM1.98333 18.9833H15.232V22.0688H1.98333V18.9833ZM15.232 66.0167H1.98333V42.585H15.232V66.0167ZM45.5062 46.699V66.0167H34.9917V46.6905L45.5062 46.699ZM33.0083 66.0167H22.4967V46.6905H33.0083V66.0167ZM50.7762 66.0167H47.4867V45.7017C47.4859 45.4391 47.3811 45.1876 47.1952 45.0023C47.0093 44.8169 46.7575 44.7128 46.495 44.7128H21.505C21.2425 44.7128 20.9907 44.8169 20.8048 45.0023C20.6189 45.1876 20.5141 45.4391 20.5133 45.7017V66.0167H17.2238V42.585H50.7762V66.0167ZM52.7595 66.0167V42.585H66.0167V66.0167H52.7595Z" fill="#BA884E"/>
<path d="M36.55 5.07711C36.4192 5.07711 36.2896 5.10293 36.1688 5.15308C36.0479 5.20324 35.9382 5.27675 35.8458 5.3694C35.7534 5.46204 35.6802 5.57201 35.6304 5.693C35.5806 5.81398 35.5551 5.94361 35.5555 6.07445V7.61578H32.4587V6.07445C32.4736 5.93531 32.459 5.7946 32.416 5.66146C32.3729 5.52832 32.3023 5.40573 32.2088 5.30165C32.1153 5.19757 32.0009 5.11434 31.8731 5.05737C31.7453 5.00039 31.6069 4.97095 31.467 4.97095C31.3271 4.97095 31.1887 5.00039 31.0609 5.05737C30.9331 5.11434 30.8187 5.19757 30.7252 5.30165C30.6317 5.40573 30.5611 5.52832 30.518 5.66146C30.475 5.7946 30.4604 5.93531 30.4753 6.07445V11.1518C30.5015 11.3965 30.6173 11.6229 30.8004 11.7874C30.9834 11.9519 31.2209 12.0429 31.467 12.0429C31.7131 12.0429 31.9506 11.9519 32.1336 11.7874C32.3167 11.6229 32.4325 11.3965 32.4587 11.1518V9.60761H35.5442V11.1518C35.5704 11.3965 35.6861 11.6229 35.8692 11.7874C36.0523 11.9519 36.2897 12.0429 36.5358 12.0429C36.782 12.0429 37.0194 11.9519 37.2025 11.7874C37.3855 11.6229 37.5013 11.3965 37.5275 11.1518V6.07445C37.5275 5.81334 37.4252 5.56262 37.2424 5.37615C37.0597 5.18967 36.811 5.08231 36.55 5.07711Z" fill="#BA884E"/>
<path d="M4.50218 29.4664V35.1869C4.50218 35.4499 4.60666 35.7021 4.79263 35.8881C4.9786 36.0741 5.23084 36.1785 5.49384 36.1785H12.053C12.316 36.1785 12.5683 36.0741 12.7542 35.8881C12.9402 35.7021 13.0447 35.4499 13.0447 35.1869V29.4664C13.0439 29.2039 12.9391 28.9524 12.7532 28.767C12.5673 28.5816 12.3155 28.4775 12.053 28.4775H5.49384C5.23133 28.4775 4.97952 28.5816 4.79363 28.767C4.60774 28.9524 4.50293 29.2039 4.50218 29.4664ZM6.48551 30.458H11.05V34.198H6.48551V30.458Z" fill="#BA884E"/>
<path d="M18.1078 36.1729H24.6642C24.9272 36.1729 25.1794 36.0684 25.3654 35.8824C25.5514 35.6965 25.6558 35.4442 25.6558 35.1812V29.4664C25.6558 29.3363 25.6302 29.2075 25.5803 29.0873C25.5304 28.9672 25.4573 28.858 25.3652 28.7662C25.2731 28.6743 25.1638 28.6015 25.0435 28.552C24.9232 28.5025 24.7943 28.4772 24.6642 28.4775H18.1078C17.8453 28.4775 17.5935 28.5816 17.4076 28.767C17.2217 28.9524 17.1169 29.2039 17.1162 29.4664V35.1869C17.1177 35.4489 17.2228 35.6997 17.4086 35.8844C17.5944 36.0692 17.8458 36.1729 18.1078 36.1729ZM19.0995 30.4524H23.6725V34.1924H19.0995V30.4524Z" fill="#BA884E"/>
<path d="M30.7218 36.1729H37.2782C37.5412 36.1729 37.7934 36.0684 37.9794 35.8824C38.1654 35.6965 38.2698 35.4442 38.2698 35.1812V29.4664C38.2698 29.3363 38.2442 29.2075 38.1943 29.0873C38.1444 28.9672 38.0713 28.858 37.9792 28.7662C37.8871 28.6743 37.7777 28.6015 37.6574 28.552C37.5371 28.5025 37.4083 28.4772 37.2782 28.4775H30.7218C30.5917 28.4772 30.4628 28.5025 30.3425 28.552C30.2223 28.6015 30.1129 28.6743 30.0208 28.7662C29.9287 28.858 29.8556 28.9672 29.8057 29.0873C29.7558 29.2075 29.7302 29.3363 29.7302 29.4664V35.1869C29.7317 35.4489 29.8368 35.6997 30.0226 35.8844C30.2084 36.0692 30.4598 36.1729 30.7218 36.1729ZM31.7135 30.4524H36.2865V34.1924H31.7135V30.4524Z" fill="#BA884E"/>
<path d="M43.35 36.1729H49.9064C50.1694 36.1729 50.4216 36.0684 50.6076 35.8824C50.7935 35.6965 50.898 35.4442 50.898 35.1812V29.4664C50.8973 29.2039 50.7925 28.9524 50.6066 28.767C50.4207 28.5816 50.1689 28.4775 49.9064 28.4775H43.35C43.2198 28.4772 43.0908 28.5025 42.9703 28.5519C42.8499 28.6014 42.7403 28.6742 42.648 28.766C42.5556 28.8578 42.4823 28.9669 42.4321 29.0871C42.3819 29.2073 42.3559 29.3361 42.3555 29.4664V35.1869C42.3578 35.4492 42.4635 35.6999 42.6498 35.8846C42.8361 36.0693 43.0877 36.1729 43.35 36.1729ZM44.3417 30.4524H48.9147V34.1924H44.3275L44.3417 30.4524Z" fill="#BA884E"/>
<path d="M55.947 36.1729H62.5062C62.6364 36.1729 62.7653 36.1472 62.8856 36.0974C63.006 36.0476 63.1153 35.9745 63.2074 35.8824C63.2995 35.7903 63.3725 35.681 63.4223 35.5607C63.4722 35.4404 63.4978 35.3114 63.4978 35.1812V29.4664C63.4971 29.2039 63.3923 28.9524 63.2064 28.767C63.0205 28.5816 62.7687 28.4775 62.5062 28.4775H55.947C55.6845 28.4775 55.4327 28.5816 55.2468 28.767C55.0609 28.9524 54.9561 29.2039 54.9553 29.4664V35.1869C54.9568 35.4489 55.062 35.6997 55.2478 35.8844C55.4336 36.0692 55.685 36.1729 55.947 36.1729ZM56.9387 30.4524H61.5145V34.1924H56.95L56.9387 30.4524Z" fill="#BA884E"/>
<path d="M11.9 45.3337H5.33233C5.06982 45.3337 4.81801 45.4378 4.63212 45.6232C4.44623 45.8086 4.34142 46.0601 4.34067 46.3226V52.0431C4.34067 52.3061 4.44515 52.5583 4.63112 52.7443C4.81709 52.9303 5.06933 53.0347 5.33233 53.0347H11.9C12.163 53.0347 12.4152 52.9303 12.6012 52.7443C12.7872 52.5583 12.8917 52.3061 12.8917 52.0431V46.3254C12.8917 46.0624 12.7872 45.8102 12.6012 45.6242C12.4152 45.4382 12.163 45.3337 11.9 45.3337ZM10.9083 51.0514H6.32683V47.3171H10.8998L10.9083 51.0514Z" fill="#BA884E"/>
<path d="M11.9 55.6074H5.33233C5.06933 55.6074 4.81709 55.7119 4.63112 55.8979C4.44515 56.0838 4.34067 56.3361 4.34067 56.5991V62.3168C4.34067 62.447 4.36632 62.5759 4.41615 62.6963C4.46599 62.8166 4.53904 62.9259 4.63112 63.018C4.72321 63.1101 4.83253 63.1831 4.95284 63.2329C5.07315 63.2828 5.20211 63.3084 5.33233 63.3084H11.9C12.0302 63.3084 12.1592 63.2828 12.2795 63.2329C12.3998 63.1831 12.5091 63.1101 12.6012 63.018C12.6933 62.9259 12.7663 62.8166 12.8162 62.6963C12.866 62.5759 12.8917 62.447 12.8917 62.3168V56.5991C12.8917 56.3361 12.7872 56.0838 12.6012 55.8979C12.4152 55.7119 12.163 55.6074 11.9 55.6074ZM10.9083 61.3279H6.32683V57.5879H10.8998L10.9083 61.3279Z" fill="#BA884E"/>
<path d="M62.6677 45.3103H56.1C55.9698 45.3103 55.8408 45.336 55.7205 45.3858C55.6002 45.4356 55.4909 45.5087 55.3988 45.6008C55.3067 45.6928 55.2336 45.8022 55.1838 45.9225C55.134 46.0428 55.1083 46.1717 55.1083 46.302V52.0196C55.1083 52.1499 55.134 52.2788 55.1838 52.3991C55.2336 52.5194 55.3067 52.6288 55.3988 52.7208C55.4909 52.8129 55.6002 52.886 55.7205 52.9358C55.8408 52.9857 55.9698 53.0113 56.1 53.0113H62.6592C62.7894 53.0113 62.9183 52.9857 63.0386 52.9358C63.159 52.886 63.2683 52.8129 63.3604 52.7208C63.4525 52.6288 63.5255 52.5194 63.5753 52.3991C63.6252 52.2788 63.6508 52.1499 63.6508 52.0196V46.302C63.6508 46.0404 63.5475 45.7895 63.3634 45.6037C63.1792 45.418 62.9292 45.3125 62.6677 45.3103ZM61.676 51.0308H57.1002V47.2908H61.676V51.0308Z" fill="#BA884E"/>
<path d="M62.6677 55.5813H56.1C55.9698 55.5813 55.8408 55.6069 55.7205 55.6568C55.6002 55.7066 55.4909 55.7797 55.3988 55.8718C55.3067 55.9638 55.2336 56.0732 55.1838 56.1935C55.134 56.3138 55.1083 56.4427 55.1083 56.573V62.2935C55.1091 62.556 55.2139 62.8075 55.3998 62.9928C55.5857 63.1782 55.8375 63.2823 56.1 63.2823H62.6592C62.9217 63.2823 63.1735 63.1782 63.3594 62.9928C63.5453 62.8075 63.6501 62.556 63.6508 62.2935V56.573C63.6508 56.3114 63.5475 56.0605 63.3634 55.8747C63.1792 55.689 62.9292 55.5835 62.6677 55.5813ZM61.676 61.3018H57.1002V57.5646H61.676V61.3018Z" fill="#BA884E"/>
<path d="M31.1667 57.6955C31.3716 57.6961 31.572 57.6358 31.7426 57.5222C31.9131 57.4087 32.0461 57.247 32.1247 57.0578C32.2032 56.8685 32.2237 56.6602 32.1837 56.4593C32.1437 56.2583 32.0448 56.0738 31.8997 55.9291C31.7546 55.7844 31.5699 55.6861 31.3688 55.6466C31.1677 55.6071 30.9595 55.6282 30.7704 55.7073C30.5814 55.7863 30.4201 55.9198 30.307 56.0906C30.194 56.2615 30.1342 56.4621 30.1353 56.667C30.1361 56.9401 30.2451 57.2017 30.4384 57.3945C30.6317 57.5873 30.8936 57.6955 31.1667 57.6955Z" fill="#BA884E"/>
<path d="M36.8333 57.6955C37.0381 57.6955 37.2383 57.6347 37.4085 57.5208C37.5787 57.407 37.7112 57.2451 37.7893 57.0558C37.8674 56.8665 37.8876 56.6583 37.8472 56.4575C37.8068 56.2568 37.7078 56.0725 37.5626 55.9281C37.4174 55.7837 37.2326 55.6856 37.0316 55.6464C36.8306 55.6071 36.6225 55.6284 36.4336 55.7076C36.2448 55.7867 36.0836 55.9201 35.9707 56.0909C35.8577 56.2618 35.798 56.4623 35.7992 56.667C35.7995 56.8025 35.8266 56.9365 35.8788 57.0615C35.9309 57.1865 36.0072 57.3 36.1032 57.3955C36.1993 57.491 36.3132 57.5666 36.4384 57.6181C36.5637 57.6696 36.6979 57.6959 36.8333 57.6955Z" fill="#BA884E"/>
</svg>
