<svg width="64" height="64" viewBox="0 0 64 64" fill="none" xmlns="http://www.w3.org/2000/svg">
<path d="M63.7028 31.2702L32.7331 0.305312C32.6371 0.208569 32.5229 0.131782 32.3971 0.0793804C32.2713 0.0269789 32.1364 0 32.0001 0C31.8639 0 31.7289 0.0269789 31.6031 0.0793804C31.4773 0.131782 31.3632 0.208569 31.2672 0.305312L0.297501 31.2702C0.154259 31.4153 0.0572242 31.5996 0.018642 31.7999C-0.0199401 32.0001 0.00165884 32.2072 0.0807135 32.3952C0.158158 32.5837 0.289674 32.7451 0.458686 32.8589C0.627698 32.9728 0.826644 33.0341 1.03045 33.0352H6.19206V57.807H5.15974C4.88595 57.807 4.62338 57.9158 4.42978 58.1093C4.23618 58.3029 4.12742 58.5654 4.12742 58.8392V62.9678C4.12742 63.2416 4.23618 63.5041 4.42978 63.6977C4.62338 63.8913 4.88595 64 5.15974 64H58.8405C59.1143 64 59.3769 63.8913 59.5705 63.6977C59.7641 63.5041 59.8728 63.2416 59.8728 62.9678V58.8392C59.8728 58.5654 59.7641 58.3029 59.5705 58.1093C59.3769 57.9158 59.1143 57.807 58.8405 57.807H57.8082V33.0352H62.9698C63.1736 33.0341 63.3726 32.9728 63.5416 32.8589C63.7106 32.7451 63.8421 32.5837 63.9196 32.3952C63.9986 32.2072 64.0202 32.0001 63.9816 31.7999C63.943 31.5996 63.846 31.4153 63.7028 31.2702ZM57.8082 61.9357H6.19206V59.8714H57.8082V61.9357ZM8.25671 57.807V32.4262L32.0001 8.68646L55.7436 32.4262V57.807H8.25671ZM57.1991 30.9708L32.7331 6.49828C32.6371 6.40154 32.5229 6.32475 32.3971 6.27235C32.2713 6.21995 32.1364 6.19297 32.0001 6.19297C31.8639 6.19297 31.7289 6.21995 31.6031 6.27235C31.4773 6.32475 31.3632 6.40154 31.2672 6.49828L6.80113 30.9708H3.51835L32.0001 2.49349L60.4819 30.9708H57.1991Z" fill="#BA884E"/>
<path d="M41.291 39.2283H36.1294V36.1318C36.1294 35.858 36.0206 35.5955 35.827 35.4019C35.6335 35.2084 35.3709 35.0996 35.0971 35.0996H28.9031C28.6294 35.0996 28.3668 35.2084 28.1732 35.4019C27.9796 35.5955 27.8708 35.858 27.8708 36.1318V39.2283H22.7092C21.8878 39.2283 21.1001 39.5545 20.5193 40.1352C19.9385 40.7159 19.6122 41.5035 19.6122 42.3247V46.4534C19.6122 46.7271 19.721 46.9897 19.9146 47.1832C20.1082 47.3768 20.3708 47.4855 20.6446 47.4855H21.6769V54.7107C21.6769 54.9844 21.7857 55.247 21.9792 55.4405C22.1728 55.6341 22.4354 55.7428 22.7092 55.7428H41.291C41.5648 55.7428 41.8274 55.6341 42.021 55.4405C42.2146 55.247 42.3233 54.9844 42.3233 54.7107V47.4855H43.3557C43.6295 47.4855 43.892 47.3768 44.0856 47.1832C44.2792 46.9897 44.388 46.7271 44.388 46.4534V42.3247C44.388 41.5035 44.0617 40.7159 43.4809 40.1352C42.9001 39.5545 42.1124 39.2283 41.291 39.2283ZM29.9355 37.1639H34.0648V39.2283H29.9355V37.1639ZM40.2587 53.6785H23.7415V47.4855H28.9031V50.582C28.9031 50.8558 29.0119 51.1183 29.2055 51.3119C29.3991 51.5055 29.6617 51.6142 29.9355 51.6142H34.0648C34.3386 51.6142 34.6011 51.5055 34.7947 51.3119C34.9883 51.1183 35.0971 50.8558 35.0971 50.582V47.4855H40.2587V53.6785ZM30.9678 47.4855H33.0324V49.5499H30.9678V47.4855ZM42.3233 45.4212H21.6769V42.3247C21.6769 42.051 21.7857 41.7885 21.9792 41.5949C22.1728 41.4013 22.4354 41.2926 22.7092 41.2926H41.291C41.5648 41.2926 41.8274 41.4013 42.021 41.5949C42.2146 41.7885 42.3233 42.051 42.3233 42.3247V45.4212Z" fill="#BA884E"/>
<path d="M46.4526 30.9708H42.7569C42.4831 30.9708 42.2206 30.862 42.027 30.6685C41.8334 30.4749 41.7246 30.2124 41.7246 29.9386C41.7246 29.6649 41.8334 29.4023 42.027 29.2088C42.2206 29.0152 42.4831 28.9065 42.7569 28.9065H46.4526C46.6244 28.9073 46.7937 28.8652 46.9451 28.7841C47.0965 28.703 47.2253 28.5854 47.3198 28.442C47.4141 28.2983 47.4711 28.1334 47.4855 27.9622C47.4999 27.7909 47.4713 27.6188 47.4024 27.4614C46.9433 26.4125 46.2024 25.5113 45.262 24.858C44.3215 24.2047 43.2183 23.8249 42.075 23.7607C40.9316 23.6965 39.7928 23.9506 38.7852 24.4945C37.7775 25.0385 36.9404 25.8511 36.3668 26.8421H28.1083C27.5338 25.8539 26.697 25.0439 25.6905 24.5018C24.684 23.9597 23.5471 23.7067 22.4057 23.7709C21.2643 23.835 20.1629 24.2137 19.2234 24.8651C18.284 25.5164 17.5432 26.4151 17.0831 27.4614C17.0147 27.618 16.9863 27.789 17.0004 27.9593C17.0144 28.1295 17.0705 28.2936 17.1636 28.4368C17.2567 28.5801 17.3839 28.6979 17.5338 28.7799C17.6837 28.8619 17.8516 28.9053 18.0225 28.9065H21.6769C21.9507 28.9065 22.2133 29.0152 22.4069 29.2088C22.6004 29.4023 22.7092 29.6649 22.7092 29.9386C22.7092 30.2124 22.6004 30.4749 22.4069 30.6685C22.2133 30.862 21.9507 30.9708 21.6769 30.9708H17.9812C17.8103 30.9719 17.6424 31.0154 17.4925 31.0973C17.3427 31.1793 17.2155 31.2972 17.1223 31.4404C17.0292 31.5836 16.9731 31.7477 16.9591 31.9179C16.945 32.0882 16.9734 32.2592 17.0418 32.4158C17.5019 33.4622 18.2427 34.3608 19.1821 35.0122C20.1216 35.6635 21.223 36.0423 22.3644 36.1064C23.5058 36.1705 24.6427 35.9175 25.6492 35.3754C26.6557 34.8334 27.4925 34.0233 28.067 33.0351H36.3256C36.8991 34.0261 37.7362 34.8387 38.7439 35.3827C39.7516 35.9267 40.8903 36.1807 42.0337 36.1165C43.177 36.0524 44.2802 35.6725 45.2207 35.0192C46.1611 34.3659 46.902 33.4648 47.3611 32.4158C47.43 32.2584 47.4586 32.0863 47.4442 31.9151C47.4298 31.7438 47.3728 31.5789 47.2785 31.4352C47.1879 31.2975 47.0657 31.1835 46.922 31.1027C46.7783 31.0219 46.6174 30.9766 46.4526 30.9708ZM41.7246 34.0673C40.9222 34.066 40.1375 33.8311 39.4665 33.3912C38.7955 32.9512 38.2673 32.3254 37.9463 31.5901C37.8657 31.4054 37.7328 31.2484 37.5641 31.1384C37.3953 31.0283 37.198 30.9701 36.9966 30.9708H27.4373C27.2358 30.9701 27.0385 31.0283 26.8697 31.1384C26.701 31.2484 26.5681 31.4054 26.4875 31.5901C26.2267 32.1842 25.8296 32.7085 25.3283 33.1205C24.8269 33.5324 24.2356 33.8205 23.6021 33.9612C22.9687 34.1019 22.3109 34.0914 21.6823 33.9305C21.0536 33.7696 20.4718 33.4629 19.9839 33.0351H21.6769C22.4983 33.0351 23.286 32.7089 23.8668 32.1282C24.4476 31.5475 24.7739 30.7599 24.7739 29.9386C24.7739 29.1174 24.4476 28.3298 23.8668 27.7491C23.286 27.1684 22.4983 26.8421 21.6769 26.8421H19.9839C20.4718 26.4144 21.0536 26.1076 21.6823 25.9467C22.3109 25.7858 22.9687 25.7753 23.6021 25.916C24.2356 26.0568 24.8269 26.3448 25.3283 26.7568C25.8296 27.1687 26.2267 27.693 26.4875 28.2872C26.5681 28.4718 26.701 28.6288 26.8697 28.7388C27.0385 28.8489 27.2358 28.9072 27.4373 28.9065H36.9966C37.198 28.9072 37.3953 28.8489 37.5641 28.7388C37.7328 28.6288 37.8657 28.4718 37.9463 28.2872C38.2071 27.693 38.6042 27.1687 39.1056 26.7568C39.6069 26.3448 40.1982 26.0568 40.8317 25.916C41.4652 25.7753 42.1229 25.7858 42.7515 25.9467C43.3802 26.1076 43.962 26.4144 44.4499 26.8421H42.7569C41.9356 26.8421 41.1478 27.1684 40.567 27.7491C39.9862 28.3298 39.66 29.1174 39.66 29.9386C39.66 30.7599 39.9862 31.5475 40.567 32.1282C41.1478 32.7089 41.9356 33.0351 42.7569 33.0351H44.4499C43.6971 33.6989 42.7283 34.0658 41.7246 34.0673Z" fill="#BA884E"/>
</svg>
