<svg width="78" height="64" viewBox="0 0 78 64" fill="none" xmlns="http://www.w3.org/2000/svg">
<path d="M22.0513 48.239C21.8247 48.2384 21.6031 48.3049 21.4145 48.43C21.2258 48.5552 21.0787 48.7334 20.9917 48.9421C20.9047 49.1507 20.8818 49.3805 20.9258 49.6022C20.9699 49.8239 21.0789 50.0275 21.2391 50.1873C21.3993 50.3471 21.6034 50.4559 21.8256 50.4998C22.0478 50.5438 22.2781 50.5209 22.4873 50.4341C22.6965 50.3473 22.8751 50.2005 23.0006 50.0124C23.126 49.8242 23.1926 49.6031 23.192 49.3771C23.1911 49.0755 23.0707 48.7865 22.8569 48.5733C22.6432 48.36 22.3535 48.2399 22.0513 48.239Z" fill="#BA884E"/>
<path d="M18.4535 29.5474C16.3059 29.5525 14.2477 30.4057 12.7289 31.9203C11.21 33.435 10.354 35.488 10.348 37.6304V56.3126H12.623V40.8695H24.258V56.3126H26.533V37.6369C26.5287 35.4978 25.677 33.4471 24.1636 31.9317C22.6502 30.4164 20.5977 29.5593 18.4535 29.5474ZM12.636 38.5902V37.6175C12.636 36.0782 13.2489 34.602 14.3399 33.5136C15.4309 32.4252 16.9106 31.8137 18.4535 31.8137C19.9964 31.8137 21.4761 32.4252 22.5671 33.5136C23.6581 34.602 24.271 36.0782 24.271 37.6175V38.5902H12.636Z" fill="#BA884E"/>
<path d="M28.6 7.79441H68.0062C68.2869 7.76443 68.5466 7.63195 68.7353 7.42246C68.924 7.21297 69.0284 6.94126 69.0284 6.6596C69.0284 6.37795 68.924 6.10624 68.7353 5.89675C68.5466 5.68726 68.2869 5.55478 68.0062 5.5248H28.6C28.4404 5.50775 28.279 5.5244 28.1262 5.57366C27.9735 5.62292 27.8329 5.70369 27.7135 5.81072C27.5941 5.91775 27.4987 6.04864 27.4333 6.1949C27.368 6.34115 27.3342 6.49948 27.3342 6.6596C27.3342 6.81973 27.368 6.97806 27.4333 7.12431C27.4987 7.27056 27.5941 7.40146 27.7135 7.50849C27.8329 7.61552 27.9735 7.69629 28.1262 7.74555C28.279 7.79481 28.4404 7.81146 28.6 7.79441Z" fill="#BA884E"/>
<path d="M66.9304 10.4079H35.7305C35.5709 10.3908 35.4095 10.4075 35.2567 10.4567C35.104 10.506 34.9634 10.5867 34.844 10.6938C34.7246 10.8008 34.6292 10.9317 34.5638 11.078C34.4984 11.2242 34.4647 11.3825 34.4647 11.5427C34.4647 11.7028 34.4984 11.8611 34.5638 12.0074C34.6292 12.1536 34.7246 12.2845 34.844 12.3915C34.9634 12.4986 35.104 12.5793 35.2567 12.6286C35.4095 12.6779 35.5709 12.6945 35.7305 12.6775H68.8317C69.1124 12.6475 69.3721 12.515 69.5608 12.3055C69.7495 12.096 69.8539 11.8243 69.8539 11.5427C69.8539 11.261 69.7495 10.9893 69.5608 10.7798C69.3721 10.5703 69.1124 10.4378 68.8317 10.4079H66.9304Z" fill="#BA884E"/>
<path d="M67.7657 15.6115H39.8645C39.5838 15.6414 39.3241 15.7739 39.1354 15.9834C38.9467 16.1929 38.8423 16.4646 38.8423 16.7463C38.8423 17.0279 38.9467 17.2996 39.1354 17.5091C39.3241 17.7186 39.5838 17.8511 39.8645 17.8811H69.9725C70.1321 17.8981 70.2935 17.8815 70.4462 17.8322C70.5989 17.783 70.7395 17.7022 70.8589 17.5952C70.9783 17.4881 71.0738 17.3572 71.1391 17.211C71.2045 17.0647 71.2383 16.9064 71.2383 16.7463C71.2383 16.5861 71.2045 16.4278 71.1391 16.2816C71.0738 16.1353 70.9783 16.0044 70.8589 15.8974C70.7395 15.7904 70.5989 15.7096 70.4462 15.6603C70.2935 15.6111 70.1321 15.5944 69.9725 15.6115H67.7657Z" fill="#BA884E"/>
<path d="M75.335 56.3124H75.01V23.0982H75.5007C75.8339 23.0989 76.163 23.0252 76.4639 22.8823C76.7647 22.7394 77.0297 22.5311 77.2392 22.2726C77.4487 22.0141 77.5975 21.7121 77.6746 21.3887C77.7517 21.0653 77.7551 20.7288 77.6847 20.4039L73.6775 1.76057C73.5695 1.26373 73.2949 0.818482 72.899 0.498382C72.5031 0.178282 72.0096 0.00247579 71.5 0H8.71649C8.2061 0.0021855 7.71168 0.177754 7.31468 0.497781C6.91769 0.817807 6.64181 1.2632 6.5325 1.76057L3.25 16.9897L0.73125 19.1102C0.41075 19.3803 0.210862 19.7663 0.175516 20.1834C0.140169 20.6004 0.272257 21.0144 0.54275 21.3344L3.01275 24.2525V56.3124H2.665C1.95846 56.3133 1.28111 56.5937 0.78151 57.0921C0.281912 57.5905 0.000860059 58.2663 0 58.9711L0 62.8619C-6.09075e-07 63.0116 0.0296131 63.1599 0.0871442 63.2982C0.144675 63.4365 0.228993 63.5621 0.335266 63.6678C0.441539 63.7735 0.567678 63.8573 0.706455 63.9143C0.845233 63.9713 0.993921 64.0004 1.144 64H76.869C77.0188 63.9987 77.1668 63.968 77.3048 63.9096C77.4427 63.8513 77.5677 63.7664 77.6727 63.6598C77.7778 63.5532 77.8607 63.427 77.9169 63.2884C77.973 63.1499 78.0012 63.0016 78 62.8522V58.9614C77.9965 58.2582 77.7143 57.585 77.215 57.0887C76.7157 56.5923 76.0398 56.3133 75.335 56.3124ZM8.77499 2.27934H71.461L75.4455 20.8189H36.7055C36.7218 20.693 36.7218 20.5654 36.7055 20.4395C36.6872 20.2334 36.6281 20.033 36.5316 19.8499C36.4351 19.6668 36.3031 19.5046 36.1432 19.3728L20.5107 6.35169C19.8621 5.80684 19.0414 5.50806 18.1935 5.50806C17.3456 5.50806 16.5249 5.80684 15.8762 6.35169L6.12625 14.5742L8.77499 2.27934ZM67.925 50.2396H33.618V24.862L35.1227 23.0626C35.2058 23.0822 35.2909 23.092 35.3762 23.0917H72.7317V50.2331L67.925 50.2396ZM72.7187 52.5092V56.3124H33.618V52.5189L72.7187 52.5092ZM2.75275 20.4006L17.3517 8.10578C17.5874 7.90398 17.8878 7.79304 18.1984 7.79304C18.509 7.79304 18.8093 7.90398 19.045 8.10578L34.151 20.6762L32.4642 22.6962L18.9442 11.4389C18.7347 11.267 18.4713 11.174 18.2 11.1762C17.931 11.1768 17.6709 11.2721 17.4655 11.4454L4.4525 22.4108L2.75275 20.4006ZM24.271 56.3124H5.30725V24.6675L5.3885 24.6059L8.54099 21.9504L11.2482 19.6808L18.2162 13.8122L25.2655 19.6743C26.1321 20.4852 27.047 21.2431 28.0052 21.944L31.3332 24.7161V56.3124H24.271ZM75.725 61.7109H2.275V58.9647C2.27499 58.9139 2.28512 58.8636 2.3048 58.8167C2.32448 58.7699 2.35331 58.7274 2.38961 58.6918C2.42591 58.6562 2.46896 58.6281 2.51624 58.6093C2.56352 58.5905 2.61409 58.5812 2.665 58.5821H75.335C75.4355 58.5829 75.5318 58.6231 75.6029 58.6941C75.674 58.7651 75.7144 58.8611 75.7152 58.9614L75.725 61.7109Z" fill="#BA884E"/>
<path d="M65.234 28.3669H41.119C40.8173 28.3669 40.528 28.4865 40.3146 28.6993C40.1013 28.9121 39.9815 29.2008 39.9815 29.5018V43.836C39.9815 44.137 40.1013 44.4256 40.3146 44.6384C40.528 44.8513 40.8173 44.9708 41.119 44.9708H65.234C65.3833 44.9708 65.5313 44.9415 65.6693 44.8844C65.8073 44.8274 65.9327 44.7438 66.0383 44.6384C66.1439 44.5331 66.2277 44.408 66.2849 44.2703C66.342 44.1326 66.3715 43.985 66.3715 43.836V29.5018C66.3715 29.3527 66.342 29.2052 66.2849 29.0675C66.2277 28.9298 66.1439 28.8047 66.0383 28.6993C65.9327 28.5939 65.8073 28.5104 65.6693 28.4533C65.5313 28.3963 65.3833 28.3669 65.234 28.3669ZM64.0997 35.5324H54.314V30.6366H64.0997V35.5324ZM52.039 30.6366V35.5324H42.25V30.6366H52.039ZM42.25 37.8053H52.0325V42.6947H42.25V37.8053ZM54.3075 42.7012V37.8053H64.0932V42.6947L54.3075 42.7012Z" fill="#BA884E"/>
</svg>
