<svg width="88" height="25" fill="none" xmlns="http://www.w3.org/2000/svg"><path d="M4.53.087C2.728.84.748 2.97.123 5.645c-.793 3.387 2.503 4.82 2.774 4.35.319-.552-.59-.739-.778-2.496-.241-2.27.814-4.807 2.142-5.919.248-.207.236.081.236.613 0 .953-.052 9.498-.052 11.282 0 2.413-.1 3.176-.278 3.928-.181.763-.473 1.279-.252 1.477.247.222 1.3-.306 1.91-1.158.732-1.022.989-2.249 1.035-3.58.056-1.606.053-4.156.056-5.609.001-1.333.022-5.236-.024-7.584C6.88.374 5.284-.229 4.53.087zm83.073 12.678c-.261 0-.381.27-.479.723-.342 1.576-.702 1.932-1.165 1.932-.519 0-.984-.78-1.104-2.344-.093-1.228-.079-3.49.041-5.74.025-.462-.103-.92-1.343-1.37-.534-.194-1.31-.478-1.696.453-1.092 2.634-1.519 4.724-1.62 5.575-.005.044-.059.053-.067-.05-.064-.68-.208-1.918-.226-4.514-.003-.507-.11-.938-.67-1.292-.362-.23-1.464-.634-1.861-.153-.344.394-.742 1.457-1.156 2.714-.336 1.022-.57 1.714-.57 1.714s.005-2.758.009-3.805c.001-.396-.27-.526-.351-.55-.367-.107-1.092-.284-1.398-.284-.38 0-.473.211-.473.521 0 .04-.06 3.632-.06 6.143v.354c-.21 1.154-.89 2.721-1.629 2.721-.74 0-1.09-.655-1.09-3.648 0-1.747.052-2.507.079-3.77.014-.728.044-1.286.043-1.413-.006-.388-.679-.585-.991-.658a2.96 2.96 0 00-.802-.089c-.302.018-.515.215-.515.487l.001.424c-.388-.61-1.014-1.037-1.43-1.16-1.122-.333-2.29-.037-3.174 1.197-.7.98-1.124 2.092-1.29 3.687-.121 1.167-.081 2.35.135 3.35-.26 1.13-.747 1.593-1.277 1.593-.77 0-1.329-1.257-1.265-3.434.043-1.43.329-2.435.641-3.888.134-.62.026-.943-.247-1.255-.249-.284-.78-.43-1.545-.251-.544.127-1.323.265-2.034.37 0 0 .043-.172.079-.474.185-1.585-1.538-1.456-2.086-.95-.327.303-.551.66-.636 1.3-.134 1.016.695 1.496.695 1.496-.272 1.245-.939 2.872-1.628 4.05-.369.63-.651 1.097-1.014 1.593l-.003-.554c-.01-2.618.026-4.679.041-5.423.015-.727.044-1.27.043-1.398-.004-.284-.17-.393-.516-.527a3.687 3.687 0 00-1.04-.233c-.473-.037-.76.213-.75.511l.001.4c-.388-.61-1.015-1.037-1.43-1.16-1.122-.333-2.29-.037-3.174 1.197-.7.98-1.16 2.357-1.29 3.675-.122 1.228-.1 2.273.067 3.152-.178.882-.69 1.802-1.27 1.802-.74 0-1.161-.655-1.161-3.649 0-1.746.052-2.506.078-3.768.015-.728.045-1.286.043-1.413-.006-.388-.678-.585-.99-.658a2.873 2.873 0 00-.827-.087c-.286.02-.488.277-.488.47v.44c-.388-.61-1.014-1.036-1.43-1.16-1.122-.333-2.285-.032-3.174 1.198-.579.801-1.048 1.69-1.29 3.657-.07.569-.1 1.1-.096 1.598-.231 1.413-1.252 3.043-2.087 3.043-.489 0-.954-.948-.954-2.967 0-2.69.166-6.52.194-6.89 0 0 1.055-.018 1.259-.02.526-.006 1.003.005 1.704-.03.35-.018.69-1.28.327-1.435-.164-.072-1.327-.132-1.787-.143a47.336 47.336 0 01-1.466-.089s.096-2.541.12-2.81c.02-.223-.271-.339-.437-.408-.404-.17-.766-.254-1.194-.341-.591-.122-.86-.003-.913.496-.078.759-.12 2.978-.12 2.978-.433 0-1.916-.085-2.352-.085-.403 0-.838 1.735-.281 1.757.641.025 1.76.046 2.502.068 0 0-.033 3.893-.033 5.096 0 .127 0 .25.002.37-.41 2.127-1.846 3.277-1.846 3.277.308-1.407-.322-2.464-1.458-3.358A111.93 111.93 0 0022.79 9.01s.534-.527 1.01-1.59c.336-.752.351-1.61-.476-1.802-1.364-.314-2.488.689-2.825 1.758-.259.828-.12 1.445.389 2.083.037.046.077.095.118.142-.308.594-.73 1.393-1.089 2.013-.994 1.722-1.746 3.081-2.313 3.081-.454 0-.448-1.382-.448-2.675 0-1.115.083-2.792.148-4.528.023-.575-.265-.9-.746-1.197-.292-.18-.917-.533-1.279-.533-.54 0-2.101.074-3.577 4.34-.185.538-.551 1.517-.551 1.517l.031-5.13c0-.12-.064-.237-.21-.315-.25-.135-.913-.41-1.502-.41-.282 0-.422.13-.422.39l-.052 8.026c0 .61.016 1.321.075 1.632.061.312.157.565.279.716.12.151.259.265.489.313.213.044 1.383.194 1.444-.254.072-.536.075-1.115.69-3.277.957-3.364 2.203-5.006 2.79-5.588.102-.103.219-.109.213.059-.025.737-.113 2.58-.172 4.147-.159 4.191.604 4.969 1.693 4.969.834 0 2.009-.828 3.268-2.924a815.807 815.807 0 002.096-3.511c.382.354.81.733 1.238 1.14.996.944 1.322 1.842 1.105 2.694-.166.65-.79 1.32-1.9.67-.325-.19-.462-.339-.788-.552-.175-.115-.442-.15-.602-.03-.416.314-.653.713-.79 1.206-.131.48.35.735.85.957.43.191 1.352.365 1.942.384 2.294.077 4.132-1.108 5.41-4.163.23 2.638 1.205 4.132 2.898 4.132 1.132 0 2.268-1.464 2.764-2.904.142.587.354 1.098.627 1.53 1.305 2.067 3.837 1.621 5.107-.134.393-.542.454-.738.454-.738.185 1.658 1.52 2.237 2.284 2.237.856 0 1.74-.405 2.36-1.8.072.151.152.296.238.433 1.305 2.068 3.837 1.622 5.108-.134.059-.083.112-.157.157-.223l.037 1.088s-.726.665-1.17 1.074c-1.963 1.799-3.453 3.163-3.563 4.75-.14 2.026 1.502 2.78 2.746 2.877 1.319.106 2.45-.623 3.145-1.644.61-.897 1.01-2.83.982-4.74-.012-.764-.03-1.736-.046-2.779a22.27 22.27 0 002.18-2.993c.778-1.29 1.612-3.022 2.04-4.37 0 0 .725.006 1.5-.045.247-.016.318.034.272.216-.055.22-.977 3.778-.136 6.148.576 1.622 1.875 2.145 2.645 2.145.903 0 1.765-.682 2.227-1.692.056.113.114.222.178.323 1.305 2.068 3.827 1.62 5.107-.133a5.26 5.26 0 00.454-.738c.275 1.715 1.608 2.246 2.372 2.246.796 0 1.551-.326 2.165-1.776.025.638.066 1.161.13 1.325.039.101.265.227.43.29.728.269 1.47.141 1.746.087.191-.039.34-.191.359-.585.053-1.036.02-2.775.334-4.068.528-2.17 1.02-3.012 1.252-3.428.13-.234.278-.272.283-.025.01.5.035 1.969.24 3.94.15 1.45.35 2.308.504 2.58.438.775.982.812 1.423.812.282 0 .868-.077.816-.571-.025-.24.02-1.73.54-3.867.339-1.395.905-2.657 1.109-3.118.076-.17.11-.035.11-.01-.043.961-.14 4.106.252 5.826.53 2.33 2.066 2.59 2.6 2.59 1.143 0 2.077-.869 2.393-3.155.073-.556-.04-.982-.376-.982zm-47.86-1.413c-.065 1.21-.302 2.222-.68 2.957-.686 1.33-2.041 1.752-2.64-.17-.43-1.387-.284-3.276-.105-4.296.267-1.516.934-2.59 1.974-2.487 1.067.103 1.587 1.478 1.451 3.996zm10.443.016c-.06 1.143-.357 2.29-.68 2.94-.666 1.338-2.062 1.758-2.64-.17-.395-1.318-.3-3.023-.104-4.097.253-1.394.87-2.687 1.973-2.687 1.074.002 1.602 1.18 1.451 4.014zm.273 7.798c-.015 2.084-.342 3.912-1.046 4.444-.998.753-2.339.188-2.062-1.333.246-1.347 1.407-2.721 3.11-4.401 0 0 .004.382-.002 1.29zm18.028-7.784c-.058 1.255-.337 2.235-.68 2.927-.667 1.339-2.052 1.755-2.64-.17-.32-1.05-.335-2.803-.105-4.267.234-1.491.889-2.619 1.973-2.516 1.07.099 1.57 1.478 1.452 4.026z" fill="#fff"/></svg>